
<svg width="600" height="200" viewBox="0 0 600 200" xmlns="http://www.w3.org/2000/svg">
  <path d="M100 177 L100 23 L200 45 L200 155 L100 177 Z M110 35 Q 115 25, 120 35 L125 55 Q 130 65, 135 55 L145 75 Q 125 100, 105 75 Z" fill="#4635B1" />
  <path d="M396.9 98.5C396.9 87.2 401.5 80 414 80C426.5 80 431.1 87.2 431.1 98.5C431.1 109.8 426.5 117 414 117C401.5 117 396.9 109.8 396.9 98.5ZM485.3 117H517.8C519.4 117 520.9 115.4 520.9 113.8V100.3C520.9 98.8 519.4 97.2 517.8 97.2H505.2V83.7H517.8C519.4 83.7 520.9 82.1 520.9 80.6V67.1C520.9 65.6 519.4 64 517.8 64H485.3C483.7 64 482.2 65.6 482.2 67.1V113.8C482.2 115.4 483.7 117 485.3 117ZM544.6 117H577.1C578.7 117 580.1 115.4 580.1 113.8V100.3C580.1 98.8 578.7 97.2 577.1 97.2H564.4V83.7H577.1C578.7 83.7 580.1 82.1 580.1 80.6V67.1C580.1 65.6 578.7 64 577.1 64H544.6C543 64 541.5 65.6 541.5 67.1V113.8C541.5 115.4 543 117 544.6 117ZM431.1 117H464.9C466.5 117 468 115.4 468 113.8V100.3C468 98.8 466.5 97.2 464.9 97.2H451V83.7H464.9C466.5 83.7 468 82.1 468 80.6V67.1C468 65.6 466.5 64 464.9 64H431.1C429.5 64 428 65.6 428 67.1V113.8C428 115.4 429.5 117 431.1 117ZM374.5 64H340C338.4 64 336.9 65.6 336.9 67.1V113.8C336.9 115.4 338.4 117 340 117H374.5C376 117 377.6 115.4 377.6 113.8V67.1C377.6 65.6 376 64 374.5 64ZM354.1 97.2V83.7H361.2V97.2H354.1ZM285 117H317.5C319.1 117 320.6 115.4 320.6 113.8V67.1C320.6 65.6 319.1 64 317.5 64H285C283.4 64 281.9 65.6 281.9 67.1V83.5C281.9 85.1 283.4 86.6 285 86.6H288V94.4H285C283.4 94.4 281.9 96 281.9 97.6V113.8C281.9 115.4 283.4 117 285 117ZM302.6 94.4V86.6H303.7V94.4H302.6ZM257.3 130.9H227.7C215.9 130.9 213 124.3 213 117V64.8H233.7V113.3C233.7 115.1 234.8 117 236.6 117H257.3V130.9Z" fill="#4635B1" />
</svg>
